<svg xmlns="http://www.w3.org/2000/svg" viewBox="0 0 627.42 168.58" width="627" height="169" role="img" aria-label="Thumb Studio"><title>Thumb Studio</title><path fill="#2447E0" fill-rule="evenodd" d="M72.25 32.66L72.03 30.90L71.72 29.15L71.33 27.41L70.86 25.70L70.30 24.01L69.66 22.35L68.94 20.73L68.14 19.14L67.27 17.59L66.32 16.09L65.29 14.64L64.20 13.24L63.04 11.89L61.81 10.61L60.53 9.38L59.18 8.22L57.78 7.13L56.33 6.10L54.83 5.15L53.28 4.28L51.69 3.48L50.07 2.76L48.41 2.12L46.72 1.56L45.01 1.09L43.27 0.70L41.52 0.39L39.76 0.17L37.99 0.04L36.21 -0.00L34.43 0.04L32.66 0.17L30.90 0.39L29.15 0.70L27.41 1.09L25.70 1.56L24.01 2.12L22.35 2.76L20.73 3.48L19.14 4.28L17.59 5.15L16.09 6.10L14.64 7.13L13.24 8.22L11.89 9.38L10.61 10.61L9.38 11.89L8.22 13.24L7.13 14.64L6.10 16.09L5.15 17.59L4.28 19.14L3.48 20.73L2.76 22.35L2.12 24.01L1.56 25.70L1.09 27.41L0.70 29.15L0.39 30.90L0.17 32.66L0.04 34.43L0.00 36.21L0.00 97.98L10.38 97.98L10.38 37.27L10.38 37.22L10.41 36.07L10.42 35.95L10.50 34.80L10.51 34.69L10.66 33.54L10.67 33.43L10.87 32.29L10.89 32.18L11.14 31.06L11.17 30.94L11.48 29.83L11.51 29.72L11.87 28.63L11.91 28.52L12.33 27.45L12.37 27.34L12.84 26.29L12.89 26.18L13.41 25.15L13.46 25.05L14.03 24.05L14.09 23.95L14.70 22.98L14.77 22.88L15.43 21.94L15.50 21.84L16.21 20.94L16.28 20.85L17.04 19.98L17.11 19.89L17.91 19.06L17.99 18.97L18.82 18.18L18.91 18.10L19.78 17.35L19.87 17.27L20.78 16.57L20.87 16.50L21.81 15.83L21.91 15.77L22.88 15.15L22.98 15.09L23.98 14.53L24.09 14.47L25.12 13.95L25.22 13.90L26.27 13.44L26.38 13.39L27.45 12.98L27.57 12.94L28.66 12.58L28.77 12.54L29.88 12.24L29.99 12.21L31.11 11.96L31.23 11.93L32.36 11.74L32.48 11.72L33.62 11.58L33.74 11.57L34.88 11.48L35.00 11.48L36.15 11.45L36.27 11.45L37.42 11.48L37.54 11.48L38.68 11.57L38.80 11.58L39.94 11.72L40.06 11.74L41.19 11.93L41.31 11.96L42.43 12.21L42.54 12.24L43.65 12.54L43.76 12.58L44.85 12.94L44.97 12.98L46.04 13.39L46.15 13.44L47.20 13.90L47.30 13.95L48.33 14.47L48.44 14.53L49.44 15.09L49.54 15.15L50.51 15.77L50.61 15.83L51.55 16.50L51.64 16.57L52.55 17.27L52.64 17.35L53.51 18.10L53.60 18.18L54.43 18.97L54.51 19.06L55.31 19.89L55.38 19.98L56.14 20.85L56.21 20.94L56.92 21.84L56.99 21.94L57.65 22.88L57.72 22.98L58.33 23.95L58.39 24.05L58.96 25.05L59.01 25.15L59.53 26.18L59.58 26.29L60.05 27.34L60.09 27.45L60.51 28.52L60.55 28.63L60.91 29.72L60.94 29.83L61.25 30.94L61.28 31.06L61.53 32.18L61.55 32.29L61.75 33.43L61.76 33.54L61.91 34.69L61.92 34.80L62.00 35.95L62.01 36.07L62.04 37.22L62.04 37.27L62.04 72.42L62.02 72.65L61.99 72.89L61.93 73.12L61.85 73.34L61.75 73.55L61.63 73.75L61.49 73.94L61.33 74.11L61.16 74.27L60.97 74.41L60.77 74.53L60.56 74.63L60.34 74.71L60.11 74.77L59.87 74.80L59.64 74.82L59.41 74.80L59.17 74.77L58.94 74.71L58.72 74.63L58.51 74.53L58.31 74.41L58.12 74.27L57.95 74.11L57.79 73.94L57.65 73.75L57.53 73.55L57.43 73.34L57.35 73.12L57.29 72.89L57.26 72.65L57.24 72.42L57.24 37.30L57.22 36.24L57.14 35.21L57.02 34.19L56.84 33.17L56.61 32.16L56.34 31.17L56.01 30.19L55.64 29.23L55.22 28.28L54.76 27.36L54.25 26.46L53.70 25.59L53.10 24.75L52.47 23.93L51.79 23.15L51.08 22.40L50.33 21.69L49.55 21.02L48.74 20.38L47.90 19.79L47.02 19.23L46.12 18.73L45.20 18.26L44.26 17.84L43.30 17.47L42.32 17.15L41.32 16.87L40.31 16.65L39.30 16.47L38.27 16.34L37.24 16.27L36.21 16.24L35.18 16.27L34.15 16.34L33.12 16.47L32.11 16.65L31.10 16.87L30.10 17.15L29.12 17.47L28.16 17.84L27.22 18.26L26.30 18.73L25.40 19.23L24.52 19.79L23.68 20.38L22.87 21.02L22.09 21.69L21.34 22.40L20.63 23.15L19.95 23.93L19.32 24.75L18.72 25.59L18.17 26.46L17.66 27.36L17.20 28.28L16.78 29.23L16.41 30.19L16.08 31.17L15.81 32.16L15.58 33.17L15.40 34.19L15.28 35.21L15.20 36.24L15.18 37.30L15.18 97.98L23.16 97.98L23.16 78.81L23.18 78.58L23.21 78.34L23.27 78.11L23.35 77.89L23.45 77.68L23.57 77.48L23.71 77.29L23.87 77.12L24.04 76.96L24.23 76.82L24.43 76.70L24.64 76.60L24.86 76.52L25.09 76.46L25.33 76.43L25.56 76.41L25.79 76.43L26.03 76.46L26.26 76.52L26.48 76.60L26.69 76.70L26.89 76.82L27.08 76.96L27.25 77.12L27.41 77.29L27.55 77.48L27.67 77.68L27.77 77.89L27.85 78.11L27.91 78.34L27.94 78.58L27.96 78.81L27.96 97.98L44.46 97.98L44.46 38.37L44.45 37.94L44.42 37.53L44.37 37.13L44.30 36.73L44.22 36.33L44.11 35.94L43.98 35.56L43.83 35.18L43.67 34.81L43.49 34.45L43.29 34.10L43.07 33.75L42.84 33.42L42.59 33.10L42.33 32.80L42.05 32.50L41.75 32.22L41.45 31.96L41.13 31.71L40.80 31.48L40.45 31.26L40.10 31.06L39.74 30.88L39.37 30.72L38.99 30.57L38.61 30.44L38.22 30.33L37.82 30.25L37.42 30.18L37.02 30.13L36.61 30.10L36.21 30.09L35.81 30.10L35.40 30.13L35.00 30.18L34.60 30.25L34.20 30.33L33.81 30.44L33.43 30.57L33.05 30.72L32.68 30.88L32.32 31.06L31.97 31.26L31.62 31.48L31.29 31.71L30.97 31.96L30.67 32.22L30.37 32.50L30.09 32.80L29.83 33.10L29.58 33.42L29.35 33.75L29.13 34.10L28.93 34.45L28.75 34.81L28.59 35.18L28.44 35.56L28.31 35.94L28.20 36.33L28.12 36.73L28.05 37.13L28.00 37.53L27.97 37.94L27.96 38.37L27.96 66.03L27.94 66.26L27.91 66.50L27.85 66.73L27.77 66.95L27.67 67.16L27.55 67.36L27.41 67.55L27.25 67.72L27.08 67.88L26.89 68.02L26.69 68.14L26.48 68.24L26.26 68.32L26.03 68.38L25.79 68.41L25.56 68.43L25.33 68.41L25.09 68.38L24.86 68.32L24.64 68.24L24.43 68.14L24.23 68.02L24.04 67.88L23.87 67.72L23.71 67.55L23.57 67.36L23.45 67.16L23.35 66.95L23.27 66.73L23.21 66.50L23.18 66.26L23.16 66.03L23.16 38.34L23.16 38.28L23.18 37.76L23.18 37.64L23.22 37.12L23.23 37.00L23.30 36.48L23.31 36.37L23.40 35.85L23.43 35.74L23.54 35.23L23.57 35.11L23.71 34.61L23.74 34.50L23.91 34.00L23.95 33.89L24.13 33.40L24.18 33.29L24.39 32.82L24.44 32.71L24.68 32.24L24.73 32.14L24.99 31.68L25.05 31.58L25.33 31.14L25.40 31.04L25.70 30.62L25.77 30.52L26.09 30.11L26.16 30.02L26.50 29.62L26.58 29.54L26.94 29.16L27.03 29.07L27.41 28.71L27.49 28.63L27.89 28.29L27.98 28.22L28.39 27.90L28.49 27.83L28.91 27.53L29.01 27.46L29.45 27.18L29.55 27.12L30.01 26.86L30.11 26.81L30.58 26.57L30.69 26.52L31.16 26.31L31.27 26.26L31.76 26.08L31.87 26.04L32.37 25.87L32.48 25.84L32.98 25.70L33.10 25.67L33.61 25.56L33.72 25.53L34.24 25.44L34.35 25.43L34.87 25.36L34.99 25.35L35.51 25.31L35.63 25.31L36.15 25.29L36.27 25.29L36.79 25.31L36.91 25.31L37.43 25.35L37.55 25.36L38.07 25.43L38.18 25.44L38.70 25.53L38.81 25.56L39.32 25.67L39.44 25.70L39.94 25.84L40.05 25.87L40.55 26.04L40.66 26.08L41.15 26.26L41.26 26.31L41.73 26.52L41.84 26.57L42.31 26.81L42.41 26.86L42.87 27.12L42.97 27.18L43.41 27.46L43.51 27.53L43.93 27.83L44.03 27.90L44.44 28.22L44.53 28.29L44.93 28.63L45.01 28.71L45.39 29.07L45.48 29.16L45.84 29.54L45.92 29.62L46.26 30.02L46.33 30.11L46.65 30.52L46.72 30.62L47.02 31.04L47.09 31.14L47.37 31.58L47.43 31.68L47.69 32.14L47.74 32.24L47.98 32.71L48.03 32.82L48.24 33.29L48.29 33.40L48.47 33.89L48.51 34.00L48.68 34.50L48.71 34.61L48.85 35.11L48.88 35.23L48.99 35.74L49.02 35.85L49.11 36.37L49.12 36.48L49.19 37.00L49.20 37.12L49.24 37.64L49.24 37.76L49.26 38.28L49.26 38.34L49.26 97.98L57.24 97.98L57.24 85.20L57.26 84.97L57.29 84.73L57.35 84.50L57.43 84.28L57.53 84.07L57.65 83.87L57.79 83.68L57.95 83.51L58.12 83.35L58.31 83.21L58.51 83.09L58.72 82.99L58.94 82.91L59.17 82.85L59.41 82.82L59.64 82.80L59.87 82.82L60.11 82.85L60.34 82.91L60.56 82.99L60.77 83.09L60.97 83.21L61.16 83.35L61.33 83.51L61.49 83.68L61.63 83.87L61.75 84.07L61.85 84.28L61.93 84.50L61.99 84.73L62.02 84.97L62.04 85.20L62.04 97.98L72.42 97.98L72.42 36.21L72.38 34.43Z"/><g fill="#FFFFFF"><path d="M122.82000000000001 97.97999999999999Q114.82000000000001 97.97999999999999 111.07000000000001 94.32999999999998Q107.32000000000001 90.67999999999999 107.32000000000001 82.67999999999999V54.47999999999999H98.92V44.579999999999984H107.32000000000001V32.079999999999984H120.12V44.579999999999984H134.22V54.47999999999999H120.12V81.47999999999999Q120.12 85.27999999999999 121.77000000000001 86.67999999999998Q123.42 88.07999999999998 126.72 88.07999999999998H134.22V97.97999999999999ZM137.82 97.97999999999999V26.97999999999999H150.62V51.679999999999986Q152.82 47.47999999999999 156.82 45.42999999999999Q160.82 43.37999999999999 165.82 43.37999999999999Q174.72 43.37999999999999 179.32 49.02999999999999Q183.92 54.679999999999986 183.92 63.679999999999986V97.97999999999999H171.12V66.77999999999999Q171.12 53.77999999999999 162.01999999999998 53.77999999999999Q156.72 53.77999999999999 153.67000000000002 57.17999999999999Q150.62 60.57999999999999 150.62 67.07999999999998V97.97999999999999ZM209.22 99.17999999999999Q201.02 99.17999999999999 196.32 93.88Q191.62 88.57999999999998 191.62 78.97999999999999V44.579999999999984H204.42000000000002V75.77999999999999Q204.42000000000002 82.57999999999998 206.67000000000002 85.67999999999998Q208.92000000000002 88.77999999999999 213.52 88.77999999999999Q218.62 88.77999999999999 221.52 85.32999999999998Q224.42000000000002 81.88 224.42000000000002 75.27999999999999V44.579999999999984H237.22V97.97999999999999H225.52L225.32 89.27999999999999Q221.12 99.17999999999999 209.22 99.17999999999999ZM246.32 97.97999999999999V44.579999999999984H257.92L258.21999999999997 53.47999999999999Q260.21999999999997 48.679999999999986 264.07 46.02999999999999Q267.92 43.37999999999999 272.92 43.37999999999999Q278.82 43.37999999999999 282.77 46.27999999999999Q286.72 49.179999999999986 288.42 54.37999999999999Q290.22 48.97999999999999 294.17 46.17999999999999Q298.12 43.37999999999999 303.72 43.37999999999999Q312.02 43.37999999999999 316.77 48.579999999999984Q321.52 53.77999999999999 321.52 63.679999999999986V97.97999999999999H308.72V66.97999999999999Q308.72 53.77999999999999 299.62 53.77999999999999Q295.02 53.77999999999999 292.41999999999996 57.329999999999984Q289.82 60.87999999999999 289.82 67.38V97.97999999999999H277.92V67.38Q277.92 60.87999999999999 275.92 57.329999999999984Q273.92 53.77999999999999 269.02 53.77999999999999Q264.42 53.77999999999999 261.77 57.37999999999999Q259.12 60.97999999999999 259.12 67.38V97.97999999999999ZM358.62 99.17999999999999Q353.02000000000004 99.17999999999999 348.82000000000005 96.78Q344.62 94.38 342.42 90.07999999999998L342.12 97.97999999999999H329.92V26.97999999999999H342.72V52.179999999999986Q344.82 48.579999999999984 348.97 45.97999999999999Q353.12 43.37999999999999 358.62 43.37999999999999Q365.52000000000004 43.37999999999999 370.57000000000005 46.829999999999984Q375.62 50.27999999999999 378.37 56.52999999999999Q381.12 62.77999999999999 381.12 71.27999999999999Q381.12 79.77999999999999 378.37 86.02999999999999Q375.62 92.27999999999999 370.57000000000005 95.72999999999999Q365.52000000000004 99.17999999999999 358.62 99.17999999999999ZM355.72 88.77999999999999Q361.22 88.77999999999999 364.52000000000004 84.13Q367.82000000000005 79.47999999999999 367.82000000000005 71.27999999999999Q367.82000000000005 62.97999999999999 364.57000000000005 58.37999999999999Q361.32000000000005 53.77999999999999 355.82 53.77999999999999Q349.62 53.77999999999999 346.17 58.37999999999999Q342.72 62.97999999999999 342.72 71.27999999999999Q342.72 79.47999999999999 346.17 84.13Q349.62 88.77999999999999 355.72 88.77999999999999Z"/><path d="M407.02000000000004 99.17999999999999Q396.32000000000005 99.17999999999999 390.77000000000004 94.17999999999999Q385.22 89.17999999999999 384.62000000000006 81.67999999999999L391.52000000000004 81.17999999999999Q392.12000000000006 86.47999999999999 395.77000000000004 89.67999999999999Q399.42 92.88 407.02000000000004 92.88Q413.32000000000005 92.88 416.62000000000006 90.78Q419.9200000000001 88.67999999999999 419.9200000000001 84.27999999999999Q419.9200000000001 81.88 418.9200000000001 80.22999999999999Q417.92 78.57999999999998 414.82000000000005 77.32999999999998Q411.72 76.07999999999998 405.52000000000004 74.97999999999999Q398.12000000000006 73.57999999999998 394.07000000000005 71.57999999999998Q390.02000000000004 69.57999999999998 388.47 66.67999999999998Q386.92 63.77999999999999 386.92 59.679999999999986Q386.92 52.679999999999986 392.07000000000005 48.22999999999999Q397.22 43.77999999999999 406.32000000000005 43.77999999999999Q413.12000000000006 43.77999999999999 417.47 46.12999999999999Q421.82000000000005 48.47999999999999 424.07000000000005 52.27999999999999Q426.32000000000005 56.079999999999984 426.9200000000001 60.37999999999999L420.02000000000004 60.97999999999999Q419.72 58.079999999999984 418.27000000000004 55.62999999999998Q416.82000000000005 53.179999999999986 413.9200000000001 51.62999999999998Q411.02000000000004 50.079999999999984 406.12000000000006 50.079999999999984Q400.12000000000006 50.079999999999984 396.97 52.62999999999998Q393.82000000000005 55.179999999999986 393.82000000000005 59.37999999999999Q393.82000000000005 62.27999999999999 394.9200000000001 64.13Q396.02000000000004 65.97999999999999 398.9200000000001 67.13Q401.82000000000005 68.27999999999999 407.12000000000006 69.17999999999999Q414.82000000000005 70.47999999999999 419.12000000000006 72.42999999999999Q423.4200000000001 74.38 425.1700000000001 77.22999999999999Q426.9200000000001 80.07999999999998 426.9200000000001 84.17999999999999Q426.9200000000001 91.38 421.47 95.28Q416.02000000000004 99.17999999999999 407.02000000000004 99.17999999999999ZM450.02000000000004 97.97999999999999Q437.32000000000005 97.97999999999999 437.32000000000005 85.57999999999998V50.87999999999999H429.02000000000004V44.97999999999999H437.32000000000005V32.579999999999984H443.9200000000001V44.97999999999999H457.62000000000006V50.87999999999999H443.9200000000001V85.38Q443.9200000000001 89.07999999999998 445.57000000000005 90.57999999999998Q447.22 92.07999999999998 450.62000000000006 92.07999999999998H457.62000000000006V97.97999999999999ZM481.32000000000005 99.17999999999999Q473.32000000000005 99.17999999999999 468.62 93.82999999999998Q463.92 88.47999999999999 463.92 79.07999999999998V44.97999999999999H470.52000000000004V77.07999999999998Q470.52000000000004 93.27999999999999 483.02000000000004 93.27999999999999Q489.92 93.27999999999999 493.87 88.82999999999998Q497.82000000000005 84.38 497.82000000000005 76.57999999999998V44.97999999999999H504.42V97.97999999999999H498.22L498.12 88.38Q496.22 93.57999999999998 491.82000000000005 96.38Q487.42 99.17999999999999 481.32000000000005 99.17999999999999ZM533.5200000000001 99.17999999999999Q526.6200000000001 99.17999999999999 521.6200000000001 95.78Q516.6200000000001 92.38 513.9200000000001 86.17999999999999Q511.2200000000001 79.97999999999999 511.2200000000001 71.47999999999999Q511.2200000000001 62.97999999999999 513.9200000000001 56.77999999999999Q516.6200000000001 50.579999999999984 521.6200000000001 47.179999999999986Q526.6200000000001 43.77999999999999 533.5200000000001 43.77999999999999Q539.32 43.77999999999999 543.9200000000001 46.62999999999999Q548.5200000000001 49.47999999999999 550.5200000000001 54.27999999999999V26.97999999999999H557.1200000000001V97.97999999999999H551.32L551.0200000000001 88.07999999999998Q548.82 93.27999999999999 544.07 96.22999999999999Q539.32 99.17999999999999 533.5200000000001 99.17999999999999ZM534.6200000000001 92.88Q542.1200000000001 92.88 546.3200000000002 87.03Q550.5200000000001 81.17999999999999 550.5200000000001 71.47999999999999Q550.5200000000001 61.87999999999999 546.3200000000002 55.97999999999999Q542.1200000000001 50.079999999999984 534.6200000000001 50.079999999999984Q527.1200000000001 50.079999999999984 522.6200000000001 55.829999999999984Q518.1200000000001 61.57999999999999 518.1200000000001 71.47999999999999Q518.1200000000001 81.27999999999999 522.6200000000001 87.07999999999998Q527.1200000000001 92.88 534.6200000000001 92.88ZM566.8200000000002 97.97999999999999V44.97999999999999H573.4200000000001V97.97999999999999ZM566.6200000000001 36.179999999999986V27.279999999999987H573.6200000000001V36.179999999999986ZM603.8199999999999 99.17999999999999Q596.62 99.17999999999999 591.3199999999999 95.78Q586.02 92.38 583.0699999999999 86.17999999999999Q580.12 79.97999999999999 580.12 71.47999999999999Q580.12 62.97999999999999 583.0699999999999 56.77999999999999Q586.02 50.579999999999984 591.3199999999999 47.179999999999986Q596.62 43.77999999999999 603.8199999999999 43.77999999999999Q611.02 43.77999999999999 616.3199999999999 47.179999999999986Q621.62 50.579999999999984 624.52 56.77999999999999Q627.42 62.97999999999999 627.42 71.47999999999999Q627.42 79.97999999999999 624.52 86.17999999999999Q621.62 92.38 616.3199999999999 95.78Q611.02 99.17999999999999 603.8199999999999 99.17999999999999ZM603.8199999999999 92.88Q611.62 92.88 616.0699999999999 87.13Q620.52 81.38 620.52 71.47999999999999Q620.52 61.47999999999999 616.0699999999999 55.77999999999999Q611.62 50.079999999999984 603.8199999999999 50.079999999999984Q595.92 50.079999999999984 591.47 55.77999999999999Q587.02 61.47999999999999 587.02 71.47999999999999Q587.02 81.38 591.47 87.13Q595.92 92.88 603.8199999999999 92.88Z"/></g><path fill="#F3F0EA" d="M-0.88 159.98Q-1.44 159.98 -1.44 159.57999999999998Q-1.44 159.14 -0.64 159.01999999999998L0.16 158.89999999999998Q1.04 158.78 1.38 158.48Q1.72 158.17999999999998 1.8800000000000001 157.34L7.32 133.82Q7.5200000000000005 132.98 7.32 132.7Q7.12 132.42 6.32 132.26L5.5200000000000005 132.1Q5.0 131.98 5.0 131.66Q5.0 131.17999999999998 5.72 131.17999999999998H12.84Q13.4 131.17999999999998 13.4 131.57999999999998Q13.4 132.01999999999998 12.6 132.14L11.8 132.26Q10.92 132.38 10.6 132.68Q10.28 132.98 10.08 133.82L4.64 157.34Q4.48 158.17999999999998 4.66 158.45999999999998Q4.84 158.73999999999998 5.64 158.89999999999998L6.44 159.06Q6.96 159.17999999999998 6.96 159.5Q6.96 159.98 6.24 159.98ZM12.120000000000001 159.45999999999998 15.92 143.5Q16.12 142.62 15.98 142.12Q15.84 141.62 15.24 141.62Q14.52 141.62 13.66 142.68Q12.8 143.73999999999998 11.72 146.7Q11.56 147.22 11.16 147.22Q10.56 147.22 10.84 146.5Q11.72 143.73999999999998 12.7 142.18Q13.68 140.62 14.68 139.98Q15.68 139.33999999999997 16.52 139.33999999999997Q17.84 139.33999999999997 18.4 140.32Q18.96 141.29999999999998 18.439999999999998 143.54L17.44 147.85999999999999Q17.4 148.14 17.56 148.18Q17.72 148.22 17.84 147.98Q19.4 144.73999999999998 20.84 142.83999999999997Q22.28 140.94 23.560000000000002 140.14Q24.84 139.33999999999997 25.880000000000003 139.33999999999997Q27.36 139.33999999999997 28.04 140.53999999999996Q28.72 141.73999999999998 28.04 144.22L25.0 155.82Q24.72 156.94 24.96 157.5Q25.200000000000003 158.06 25.84 158.06Q26.64 158.06 27.42 157.0Q28.2 155.94 29.04 152.98Q29.16 152.54 29.56 152.54Q29.88 152.54 29.939999999999998 152.77999999999997Q30.0 153.01999999999998 29.92 153.33999999999997Q29.16 156.06 28.28 157.6Q27.400000000000002 159.14 26.5 159.74Q25.6 160.34 24.68 160.34Q23.240000000000002 160.34 22.520000000000003 159.14Q21.8 157.94 22.439999999999998 155.42L25.52 143.82Q25.96 142.26 25.66 141.66Q25.36 141.06 24.8 141.06Q23.92 141.06 22.8 142.16Q21.68 143.26 20.52 145.16Q19.36 147.06 18.240000000000002 149.45999999999998Q17.12 151.85999999999999 16.22 154.45999999999998Q15.32 157.06 14.76 159.54Q14.64 159.98 14.2 159.98H12.56Q12.0 159.98 12.120000000000001 159.45999999999998ZM32.96 159.45999999999998 36.76 143.5Q36.96 142.62 36.82 142.12Q36.68 141.62 36.08 141.62Q35.36 141.62 34.5 142.68Q33.64 143.73999999999998 32.56 146.7Q32.4 147.22 32.0 147.22Q31.4 147.22 31.68 146.5Q32.56 143.73999999999998 33.540000000000006 142.18Q34.52 140.62 35.519999999999996 139.98Q36.519999999999996 139.33999999999997 37.36 139.33999999999997Q38.68 139.33999999999997 39.239999999999995 140.32Q39.8 141.29999999999998 39.28 143.54L38.28 147.85999999999999Q38.24 148.14 38.400000000000006 148.18Q38.56 148.22 38.68 147.98Q40.24 144.73999999999998 41.68000000000001 142.83999999999997Q43.120000000000005 140.94 44.400000000000006 140.14Q45.68 139.33999999999997 46.72 139.33999999999997Q48.2 139.33999999999997 48.88 140.53999999999996Q49.56 141.73999999999998 48.879999999999995 144.22L45.84 155.82Q45.56 156.94 45.8 157.5Q46.04 158.06 46.68 158.06Q47.480000000000004 158.06 48.260000000000005 157.0Q49.04 155.94 49.879999999999995 152.98Q50.0 152.54 50.4 152.54Q50.72 152.54 50.78 152.77999999999997Q50.84 153.01999999999998 50.760000000000005 153.33999999999997Q50.0 156.06 49.120000000000005 157.6Q48.24 159.14 47.34 159.74Q46.44 160.34 45.519999999999996 160.34Q44.08 160.34 43.36 159.14Q42.64 157.94 43.28 155.42L46.36 143.82Q46.8 142.26 46.5 141.66Q46.2 141.06 45.64 141.06Q44.76 141.06 43.64 142.16Q42.519999999999996 143.26 41.36 145.16Q40.2 147.06 39.08 149.45999999999998Q37.96 151.85999999999999 37.06 154.45999999999998Q36.16 157.06 35.6 159.54Q35.48 159.98 35.04 159.98H33.4Q32.84 159.98 32.96 159.45999999999998ZM57.84 160.34Q55.36 160.34 53.92 158.28Q52.48 156.22 52.48 152.7Q52.48 150.1 53.31999999999999 147.7Q54.16 145.29999999999998 55.54 143.42Q56.92 141.54 58.620000000000005 140.44Q60.32 139.33999999999997 62.04 139.33999999999997Q64.52 139.33999999999997 65.96000000000001 141.38Q67.4 143.42 67.4 146.98Q67.4 149.57999999999998 66.56 151.98Q65.72 154.38 64.34 156.26Q62.96 158.14 61.260000000000005 159.24Q59.56 160.34 57.84 160.34ZM57.76 159.38Q59.04 159.38 60.260000000000005 158.14Q61.480000000000004 156.89999999999998 62.480000000000004 154.85999999999999Q63.480000000000004 152.82 64.08000000000001 150.32Q64.68 147.82 64.68 145.29999999999998Q64.68 140.29999999999998 62.08 140.29999999999998Q60.84 140.29999999999998 59.6 141.51999999999998Q58.36 142.73999999999998 57.379999999999995 144.77999999999997Q56.4 146.82 55.8 149.32Q55.2 151.82 55.2 154.34Q55.2 159.38 57.76 159.38ZM74.28 160.34Q72.32 160.34 71.35999999999999 158.86Q70.39999999999999 157.38 71.0 155.06L74.08 143.5Q74.6 141.62 73.44 141.62Q72.6 141.62 71.78 142.82Q70.96 144.01999999999998 70.0 146.73999999999998Q69.83999999999999 147.22 69.44 147.22Q69.24 147.22 69.12 147.04Q69.0 146.85999999999999 69.08 146.57999999999998Q71.39999999999999 139.33999999999997 74.88 139.33999999999997Q76.24 139.33999999999997 76.72 140.45999999999998Q77.19999999999999 141.57999999999998 76.67999999999999 143.54L73.52 155.45999999999998Q73.08 157.14 73.46 158.04Q73.83999999999999 158.94 74.83999999999999 158.94Q76.0 158.94 77.3 157.82Q78.6 156.7 79.75999999999999 154.89999999999998Q80.91999999999999 153.1 81.63999999999999 150.94Q82.36 148.78 82.36 146.7Q82.36 145.01999999999998 82.0 144.04Q81.64 143.06 81.25999999999999 142.38Q80.88 141.7 80.88 140.89999999999998Q80.88 139.33999999999997 82.24 139.33999999999997Q84.16 139.33999999999997 84.16 143.57999999999998Q84.16 146.62 83.28 149.6Q82.39999999999999 152.57999999999998 80.96 155.0Q79.52 157.42 77.78 158.88Q76.03999999999999 160.34 74.28 160.34ZM88.28 160.34Q86.84 160.34 86.03999999999999 159.1Q85.24 157.85999999999999 85.24 155.45999999999998Q85.24 153.17999999999998 85.88 150.88Q86.52 148.57999999999998 87.64 146.5Q88.76 144.42 90.18 142.82Q91.6 141.22 93.18 140.27999999999997Q94.76 139.33999999999997 96.32 139.33999999999997Q97.08 139.33999999999997 97.75999999999999 139.64Q98.44 139.94 98.88 140.57999999999998Q99.12 140.94 99.36 140.94Q99.6 140.94 99.84 140.57999999999998Q100.28 139.94 100.56 139.76Q100.84 139.57999999999998 101.08 139.57999999999998Q101.6 139.57999999999998 101.48 140.14L97.92 155.45999999999998Q97.32 158.06 98.72 158.06Q99.64 158.06 100.38 156.82Q101.12 155.57999999999998 101.88 152.98Q102.0 152.54 102.4 152.54Q102.68 152.54 102.76 152.77999999999997Q102.84 153.01999999999998 102.75999999999999 153.33999999999997Q102.0 157.1 100.72 158.72Q99.44 160.34 97.64 160.34Q96.08 160.34 95.42 159.01999999999998Q94.76 157.7 95.28 155.42L95.8 153.22Q95.88 152.94 95.69999999999999 152.89999999999998Q95.52 152.85999999999999 95.4 153.1Q93.2 157.14 91.5 158.74Q89.8 160.34 88.28 160.34ZM89.28 158.29999999999998Q90.24 158.29999999999998 91.4 157.14Q92.56 155.98 93.7 154.14Q94.84 152.29999999999998 95.80000000000001 150.18Q96.76 148.06 97.34 146.1Q97.92 144.14 97.92 142.78Q97.92 140.33999999999997 96.2 140.33999999999997Q95.16 140.33999999999997 94.0 141.27999999999997Q92.84 142.22 91.78 143.82Q90.72 145.42 89.86 147.44Q89.0 149.45999999999998 88.47999999999999 151.64Q87.96 153.82 87.96 155.89999999999998Q87.96 157.29999999999998 88.3 157.79999999999998Q88.64 158.29999999999998 89.28 158.29999999999998ZM107.28 160.34Q105.92 160.34 105.16 159.26Q104.4 158.17999999999998 104.92 155.78L108.24000000000001 141.29999999999998Q108.36 140.7 107.76 140.7H106.24000000000001Q105.68 140.7 105.68 140.17999999999998Q105.68 139.89999999999998 105.88 139.73999999999998Q106.08 139.57999999999998 106.36 139.57999999999998H107.8Q108.72 139.57999999999998 108.88 138.73999999999998L109.84 134.45999999999998Q109.96000000000001 134.01999999999998 110.4 134.01999999999998H112.04Q112.60000000000001 134.01999999999998 112.48 134.54L111.48 138.98Q111.36 139.57999999999998 111.96000000000001 139.57999999999998H114.24000000000001Q114.92 139.57999999999998 114.92 140.1Q114.92 140.7 114.08 140.7H111.92Q111.04 140.7 110.84 141.54L107.48 156.17999999999998Q107.28 157.06 107.53999999999999 157.56Q107.8 158.06 108.44 158.06Q109.36 158.06 110.14 157.01999999999998Q110.92 155.98 111.8 153.06Q111.96000000000001 152.54 112.32000000000001 152.54Q112.60000000000001 152.54 112.68 152.77999999999997Q112.76 153.01999999999998 112.56 153.66Q111.8 156.38 110.9 157.82Q110.0 159.26 109.08 159.8Q108.16 160.34 107.28 160.34ZM122.24 135.78Q121.48 135.78 120.98 135.24Q120.48 134.7 120.48 133.94Q120.48 132.85999999999999 121.14 132.21999999999997Q121.8 131.57999999999998 122.64 131.57999999999998Q123.44 131.57999999999998 123.97999999999999 132.07999999999998Q124.52 132.57999999999998 124.52 133.38Q124.52 134.5 123.84 135.14Q123.16 135.78 122.24 135.78ZM118.96 160.38Q117.64 160.38 117.08 159.39999999999998Q116.52 158.42 117.03999999999999 156.17999999999998L120.0 143.5Q120.2 142.62 120.06 142.12Q119.92 141.62 119.32 141.62Q118.6 141.62 117.74 142.68Q116.88 143.73999999999998 115.8 146.7Q115.64 147.22 115.24 147.22Q114.64 147.22 114.92 146.5Q115.8 143.73999999999998 116.78 142.18Q117.76 140.62 118.75999999999999 139.98Q119.75999999999999 139.33999999999997 120.6 139.33999999999997Q122.0 139.33999999999997 122.56 140.32Q123.12 141.29999999999998 122.6 143.54L119.64 156.22Q119.44 157.1 119.58 157.6Q119.72 158.1 120.32 158.1Q121.03999999999999 158.1 121.89999999999999 157.04Q122.75999999999999 155.98 123.84 153.01999999999998Q124.0 152.5 124.4 152.5Q125.0 152.5 124.72 153.22Q123.88 155.94 122.86 157.51999999999998Q121.84 159.1 120.84 159.74Q119.84 160.38 118.96 160.38ZM131.76000000000002 160.34Q129.28 160.34 127.84 158.28Q126.4 156.22 126.4 152.7Q126.4 150.1 127.24000000000001 147.7Q128.08 145.29999999999998 129.46 143.42Q130.84 141.54 132.54000000000002 140.44Q134.24 139.33999999999997 135.96 139.33999999999997Q138.44 139.33999999999997 139.88 141.38Q141.32000000000002 143.42 141.32000000000002 146.98Q141.32000000000002 149.57999999999998 140.48000000000002 151.98Q139.64000000000001 154.38 138.26 156.26Q136.88 158.14 135.18 159.24Q133.48000000000002 160.34 131.76000000000002 160.34ZM131.68 159.38Q132.96 159.38 134.18 158.14Q135.4 156.89999999999998 136.4 154.85999999999999Q137.4 152.82 138.0 150.32Q138.60000000000002 147.82 138.60000000000002 145.29999999999998Q138.60000000000002 140.29999999999998 136.0 140.29999999999998Q134.76000000000002 140.29999999999998 133.52 141.51999999999998Q132.28 142.73999999999998 131.3 144.77999999999997Q130.32000000000002 146.82 129.72000000000003 149.32Q129.12 151.82 129.12 154.34Q129.12 159.38 131.68 159.38ZM144.28 159.45999999999998 148.07999999999998 143.5Q148.28 142.62 148.14 142.12Q148.0 141.62 147.4 141.62Q146.68 141.62 145.82 142.68Q144.96 143.73999999999998 143.88 146.7Q143.72 147.22 143.32 147.22Q142.72 147.22 143.0 146.5Q143.88 143.73999999999998 144.86 142.18Q145.84 140.62 146.84 139.98Q147.84 139.33999999999997 148.68 139.33999999999997Q150.0 139.33999999999997 150.56 140.32Q151.12 141.29999999999998 150.6 143.54L149.6 147.85999999999999Q149.56 148.14 149.72 148.18Q149.88 148.22 150.0 147.98Q151.56 144.73999999999998 153.0 142.83999999999997Q154.44 140.94 155.72 140.14Q157.0 139.33999999999997 158.04 139.33999999999997Q159.51999999999998 139.33999999999997 160.2 140.53999999999996Q160.88 141.73999999999998 160.2 144.22L157.16 155.82Q156.88 156.94 157.12 157.5Q157.35999999999999 158.06 158.0 158.06Q158.8 158.06 159.57999999999998 157.0Q160.35999999999999 155.94 161.2 152.98Q161.32 152.54 161.72 152.54Q162.04 152.54 162.1 152.77999999999997Q162.16 153.01999999999998 162.07999999999998 153.33999999999997Q161.32 156.06 160.44 157.6Q159.56 159.14 158.66 159.74Q157.76 160.34 156.84 160.34Q155.4 160.34 154.68 159.14Q153.96 157.94 154.6 155.42L157.68 143.82Q158.12 142.26 157.82 141.66Q157.51999999999998 141.06 156.96 141.06Q156.07999999999998 141.06 154.95999999999998 142.16Q153.84 143.26 152.68 145.16Q151.51999999999998 147.06 150.39999999999998 149.45999999999998Q149.28 151.85999999999999 148.38 154.45999999999998Q147.48 157.06 146.92 159.54Q146.79999999999998 159.98 146.35999999999999 159.98H144.72Q144.16 159.98 144.28 159.45999999999998ZM162.48 165.98Q162.16 166.17999999999998 161.86 166.15999999999997Q161.56 166.14 161.56 165.85999999999999Q161.56 165.57999999999998 161.96 165.29999999999998Q163.12 164.5 164.06 163.28Q165.0 162.06 165.0 160.94Q165.0 160.29999999999998 164.66 159.92Q164.32 159.54 163.98 159.16Q163.64 158.78 163.64 158.14Q163.64 157.26 164.22 156.7Q164.8 156.14 165.64 156.14Q166.56 156.14 167.1 156.71999999999997Q167.64 157.29999999999998 167.64 158.26Q167.64 159.54 166.89999999999998 161.01999999999998Q166.16 162.5 164.98000000000002 163.82Q163.8 165.14 162.48 165.98ZM184.0 160.34Q182.64000000000001 160.34 181.58 159.6Q180.52 158.85999999999999 180.10000000000002 157.35999999999999Q179.68 155.85999999999999 180.2 153.61999999999998L184.68 134.38Q184.88 133.66 184.7 133.38Q184.52 133.1 183.96 133.06L182.76 132.94Q182.16 132.89999999999998 182.24 132.42Q182.32 132.06 182.8 131.98Q184.24 131.73999999999998 185.36 131.39999999999998Q186.48 131.06 187.16 130.5Q187.48 130.26 187.76 130.26Q188.24 130.26 188.12 130.85999999999999L184.48 146.57999999999998Q184.44 146.85999999999999 184.6 146.89999999999998Q184.76 146.94 184.88 146.7Q187.08 142.5 188.82 140.92Q190.56 139.33999999999997 192.08 139.33999999999997Q193.56 139.33999999999997 194.42000000000002 140.57999999999998Q195.28 141.82 195.28 144.22Q195.28 146.5 194.62 148.8Q193.96 151.1 192.82 153.18Q191.68 155.26 190.22 156.85999999999999Q188.76 158.45999999999998 187.16 159.39999999999998Q185.56 160.34 184.0 160.34ZM184.12 159.34Q185.16 159.34 186.32 158.39999999999998Q187.48 157.45999999999998 188.57999999999998 155.88Q189.68 154.29999999999998 190.56 152.32Q191.44 150.33999999999997 191.95999999999998 148.23999999999998Q192.48 146.14 192.48 144.17999999999998Q192.48 142.66 192.16 142.04Q191.84 141.42 191.04 141.42Q190.16 141.42 189.04000000000002 142.5Q187.92000000000002 143.57999999999998 186.76 145.35999999999999Q185.6 147.14 184.6 149.21999999999997Q183.6 151.29999999999998 183.0 153.32Q182.4 155.34 182.4 156.89999999999998Q182.4 159.34 184.12 159.34ZM194.72 168.57999999999998Q193.20000000000002 168.57999999999998 192.36 167.79999999999998Q191.52 167.01999999999998 191.52 165.89999999999998Q191.52 165.06 191.96 164.64Q192.4 164.22 192.92000000000002 164.22Q193.68 164.22 194.0 164.62Q194.32000000000002 165.01999999999998 194.48000000000002 165.56Q194.64000000000001 166.1 194.98000000000002 166.5Q195.32000000000002 166.89999999999998 196.08 166.89999999999998Q197.56 166.89999999999998 199.0 165.71999999999997Q200.44 164.54 201.36 162.48Q202.28 160.42 202.16000000000003 157.85999999999999L201.56 143.5Q201.52 142.45999999999998 201.20000000000002 142.04Q200.88000000000002 141.62 200.4 141.62Q199.52 141.62 198.72000000000003 142.68Q197.92000000000002 143.73999999999998 197.4 146.7Q197.28 147.22 196.88000000000002 147.22Q196.32000000000002 147.22 196.44 146.5Q196.92000000000002 143.73999999999998 197.78000000000003 142.18Q198.64000000000001 140.62 199.62 139.98Q200.60000000000002 139.33999999999997 201.44 139.33999999999997Q202.68 139.33999999999997 203.4 140.2Q204.12 141.06 204.20000000000002 143.14L204.76000000000002 158.5Q204.76000000000002 158.78 204.94 158.83999999999997Q205.12 158.89999999999998 205.28 158.66Q206.68 156.7 207.82 154.6Q208.96 152.5 209.64000000000001 150.45999999999998Q210.32000000000002 148.42 210.32000000000002 146.7Q210.32000000000002 145.01999999999998 209.96000000000004 144.04Q209.60000000000002 143.06 209.22000000000003 142.38Q208.84 141.7 208.84 140.89999999999998Q208.84 139.33999999999997 210.20000000000002 139.33999999999997Q212.12 139.33999999999997 212.12 143.57999999999998Q212.12 145.89999999999998 211.32 148.64Q210.52 151.38 209.14000000000001 154.2Q207.76000000000002 157.01999999999998 205.98000000000002 159.57999999999998Q204.20000000000002 162.14 202.26000000000002 164.18Q200.32000000000002 166.22 198.38 167.39999999999998Q196.44 168.57999999999998 194.72 168.57999999999998ZM221.88 159.98Q221.32 159.98 221.44 159.45999999999998L225.23999999999998 143.5Q225.44 142.62 225.3 142.12Q225.16 141.62 224.56 141.62Q223.84 141.62 222.98000000000002 142.68Q222.12 143.73999999999998 221.04 146.7Q220.88 147.22 220.48 147.22Q219.88 147.22 220.16 146.5Q221.04 143.73999999999998 222.01999999999998 142.18Q223.0 140.62 224.0 139.98Q225.0 139.33999999999997 225.84 139.33999999999997Q227.16 139.33999999999997 227.72 140.32Q228.28 141.29999999999998 227.76 143.54L227.32 145.42Q227.28 145.7 227.44 145.74Q227.6 145.78 227.72 145.54Q229.23999999999998 142.06 230.48 140.7Q231.72 139.33999999999997 233.32 139.33999999999997Q234.4 139.33999999999997 234.94 139.92Q235.48 140.5 235.48 141.5Q235.48 142.5 235.0 143.1Q234.51999999999998 143.7 233.76 143.7Q233.12 143.7 232.84 143.38Q232.56 143.06 232.42000000000002 142.64Q232.28 142.22 232.12 141.89999999999998Q231.95999999999998 141.57999999999998 231.6 141.57999999999998Q231.0 141.57999999999998 230.04 143.1Q229.07999999999998 144.62 227.98 147.2Q226.88 149.78 225.86 152.98Q224.84 156.17999999999998 224.07999999999998 159.54Q223.95999999999998 159.98 223.51999999999998 159.98ZM238.64 160.34Q237.16 160.34 236.62 159.0Q236.07999999999998 157.66 236.67999999999998 155.45999999999998L239.84 143.85999999999999Q240.16 142.7 240.0 142.06Q239.84 141.42 239.28 141.42Q238.35999999999999 141.42 237.42 142.82Q236.48 144.22 235.79999999999998 146.7Q235.67999999999998 147.14 235.28 147.14Q234.72 147.14 234.92 146.33999999999997Q235.84 142.98 237.34 141.15999999999997Q238.84 139.33999999999997 240.64 139.33999999999997Q242.07999999999998 139.33999999999997 242.56 140.65999999999997Q243.04 141.98 242.39999999999998 144.26L239.2 155.85999999999999Q238.44 158.61999999999998 239.72 158.61999999999998Q240.51999999999998 158.61999999999998 241.56 157.53999999999996Q242.6 156.45999999999998 243.74 154.57999999999998Q244.88 152.7 246.0 150.29999999999998Q247.12 147.89999999999998 248.04 145.26Q248.95999999999998 142.62 249.56 140.01999999999998Q249.68 139.57999999999998 250.12 139.57999999999998H251.72Q252.28 139.57999999999998 252.16 140.1L248.39999999999998 156.17999999999998Q247.95999999999998 158.06 249.07999999999998 158.06Q250.76 158.06 252.6 152.98Q252.76 152.45999999999998 253.16 152.45999999999998Q253.39999999999998 152.45999999999998 253.5 152.65999999999997Q253.6 152.85999999999999 253.48 153.17999999999998Q252.39999999999998 156.57999999999998 250.92 158.45999999999998Q249.44 160.34 247.79999999999998 160.34Q244.92 160.34 245.88 156.14L246.92 151.7Q247.0 151.42 246.82 151.38Q246.64 151.33999999999997 246.51999999999998 151.57999999999998Q244.2 156.38 242.24 158.36Q240.28 160.34 238.64 160.34ZM257.32 160.38Q256.0 160.38 255.44 159.39999999999998Q254.88000000000002 158.42 255.4 156.17999999999998L260.48 134.38Q260.68 133.66 260.5 133.38Q260.32 133.1 259.76 133.06L258.56 132.94Q257.96000000000004 132.89999999999998 258.04 132.42Q258.12 132.06 258.6 131.98Q260.04 131.73999999999998 261.16 131.39999999999998Q262.28000000000003 131.06 262.96000000000004 130.5Q263.28000000000003 130.26 263.56 130.26Q264.04 130.26 263.92 130.85999999999999L258.0 156.22Q257.8 157.1 257.94000000000005 157.6Q258.08000000000004 158.1 258.68 158.1Q259.40000000000003 158.1 260.26 157.04Q261.12 155.98 262.2 153.01999999999998Q262.36 152.5 262.76 152.5Q263.36 152.5 263.08000000000004 153.22Q262.24 155.94 261.22 157.51999999999998Q260.2 159.1 259.2 159.74Q258.2 160.38 257.32 160.38ZM269.12 160.34Q267.0 160.34 265.72 158.68Q264.44 157.01999999999998 264.44 153.98Q264.44 151.33999999999997 265.38 148.73999999999998Q266.32 146.14 267.84 144.01999999999998Q269.35999999999996 141.89999999999998 271.17999999999995 140.61999999999998Q273.0 139.33999999999997 274.71999999999997 139.33999999999997Q276.59999999999997 139.33999999999997 277.41999999999996 140.23999999999998Q278.24 141.14 278.24 142.66Q278.24 144.45999999999998 276.98 146.23999999999998Q275.71999999999997 148.01999999999998 273.46 149.42Q271.2 150.82 268.15999999999997 151.5Q267.28 151.7 267.23999999999995 152.5Q267.2 152.78 267.2 153.07999999999998Q267.2 153.38 267.2 153.66Q267.2 155.94 267.98 157.1Q268.76 158.26 270.12 158.26Q271.64 158.26 273.05999999999995 156.85999999999999Q274.47999999999996 155.45999999999998 275.44 152.89999999999998Q275.56 152.54 275.91999999999996 152.54Q276.15999999999997 152.54 276.21999999999997 152.74Q276.28 152.94 276.2 153.22Q274.91999999999996 156.73999999999998 273.09999999999997 158.54Q271.28 160.34 269.12 160.34ZM267.64 149.98Q267.56 150.26 267.74 150.44Q267.91999999999996 150.62 268.2 150.54Q270.68 149.85999999999999 272.36 148.48Q274.03999999999996 147.1 274.9 145.38Q275.76 143.66 275.76 142.01999999999998Q275.76 140.33999999999997 274.44 140.33999999999997Q273.28 140.33999999999997 271.91999999999996 141.7Q270.56 143.06 269.4 145.26Q268.23999999999995 147.45999999999998 267.64 149.98ZM290.84000000000003 160.34Q288.36 160.34 286.92 158.28Q285.48 156.22 285.48 152.7Q285.48 150.1 286.32000000000005 147.7Q287.16 145.29999999999998 288.54 143.42Q289.92 141.54 291.62 140.44Q293.32 139.33999999999997 295.04 139.33999999999997Q297.52 139.33999999999997 298.96000000000004 141.38Q300.40000000000003 143.42 300.40000000000003 146.98Q300.40000000000003 149.57999999999998 299.56000000000006 151.98Q298.72 154.38 297.34000000000003 156.26Q295.96 158.14 294.26 159.24Q292.56 160.34 290.84000000000003 160.34ZM290.76 159.38Q292.04 159.38 293.26 158.14Q294.48 156.89999999999998 295.48 154.85999999999999Q296.48 152.82 297.08000000000004 150.32Q297.68 147.82 297.68 145.29999999999998Q297.68 140.29999999999998 295.08 140.29999999999998Q293.84000000000003 140.29999999999998 292.6 141.51999999999998Q291.36 142.73999999999998 290.38 144.77999999999997Q289.40000000000003 146.82 288.8 149.32Q288.2 151.82 288.2 154.34Q288.2 159.38 290.76 159.38ZM302.52 159.98Q302.0 159.98 302.12 159.45999999999998L306.16 142.17999999999998Q306.52 140.7 305.2 140.7H304.36Q303.72 140.7 303.72 140.14Q303.72 139.57999999999998 304.44 139.57999999999998Q305.68 139.57999999999998 306.3 139.26Q306.92 138.94 307.12 137.98Q307.64 135.7 308.65999999999997 133.92Q309.68 132.14 311.12 131.1Q312.56 130.06 314.28000000000003 130.06Q315.68 130.06 316.54 130.72Q317.40000000000003 131.38 317.40000000000003 132.54Q317.40000000000003 133.42 316.94000000000005 133.95999999999998Q316.48 134.5 315.8 134.5Q314.96000000000004 134.5 314.70000000000005 134.01999999999998Q314.44 133.54 314.38 132.89999999999998Q314.32 132.26 314.12 131.77999999999997Q313.92 131.29999999999998 313.2 131.29999999999998Q312.28000000000003 131.29999999999998 311.58000000000004 132.2Q310.88 133.1 310.32 135.57999999999998L309.52 139.06Q309.40000000000003 139.57999999999998 309.96000000000004 139.57999999999998H313.16Q313.92 139.57999999999998 313.76 140.14Q313.64 140.7 313.04 140.7H309.56Q309.16 140.7 309.04 141.1L304.76 159.54Q304.64 159.98 304.2 159.98ZM323.03999999999996 160.34Q321.68 160.34 320.91999999999996 159.26Q320.15999999999997 158.17999999999998 320.68 155.78L324.0 141.29999999999998Q324.12 140.7 323.52 140.7H322.0Q321.44 140.7 321.44 140.17999999999998Q321.44 139.89999999999998 321.64 139.73999999999998Q321.84 139.57999999999998 322.12 139.57999999999998H323.56Q324.47999999999996 139.57999999999998 324.64 138.73999999999998L325.59999999999997 134.45999999999998Q325.71999999999997 134.01999999999998 326.15999999999997 134.01999999999998H327.79999999999995Q328.35999999999996 134.01999999999998 328.23999999999995 134.54L327.23999999999995 138.98Q327.12 139.57999999999998 327.71999999999997 139.57999999999998H330.0Q330.68 139.57999999999998 330.68 140.1Q330.68 140.7 329.84 140.7H327.68Q326.79999999999995 140.7 326.59999999999997 141.54L323.23999999999995 156.17999999999998Q323.03999999999996 157.06 323.29999999999995 157.56Q323.56 158.06 324.2 158.06Q325.12 158.06 325.9 157.01999999999998Q326.68 155.98 327.56 153.06Q327.71999999999997 152.54 328.08 152.54Q328.35999999999996 152.54 328.43999999999994 152.77999999999997Q328.52 153.01999999999998 328.32 153.66Q327.56 156.38 326.65999999999997 157.82Q325.76 159.26 324.84 159.8Q323.91999999999996 160.34 323.03999999999996 160.34ZM342.72 160.34Q341.28000000000003 160.34 340.56000000000006 159.14Q339.84000000000003 157.94 340.48 155.42L343.56000000000006 143.82Q344.00000000000006 142.26 343.70000000000005 141.66Q343.40000000000003 141.06 342.84000000000003 141.06Q341.96000000000004 141.06 340.86 142.16Q339.76000000000005 143.26 338.58000000000004 145.16Q337.40000000000003 147.06 336.30000000000007 149.44Q335.20000000000005 151.82 334.28000000000003 154.44Q333.36 157.06 332.8 159.54Q332.68 159.98 332.24 159.98H330.56000000000006Q330.00000000000006 159.98 330.12 159.45999999999998L335.96000000000004 134.38Q336.16 133.66 335.98 133.38Q335.8 133.1 335.24 133.06L334.04 132.94Q333.44000000000005 132.89999999999998 333.52000000000004 132.42Q333.6 132.06 334.08000000000004 131.98Q335.52000000000004 131.73999999999998 336.64000000000004 131.39999999999998Q337.76000000000005 131.06 338.44000000000005 130.5Q338.76000000000005 130.26 339.04 130.26Q339.52000000000004 130.26 339.40000000000003 130.85999999999999L335.48 147.85999999999999Q335.44000000000005 148.14 335.6 148.18Q335.76000000000005 148.22 335.88000000000005 147.98Q337.48 144.7 338.92 142.82Q340.36 140.94 341.62 140.14Q342.88000000000005 139.33999999999997 343.92 139.33999999999997Q345.40000000000003 139.33999999999997 346.08000000000004 140.53999999999996Q346.76000000000005 141.73999999999998 346.08000000000004 144.22L343.04 155.82Q342.76000000000005 156.94 343.0 157.5Q343.24 158.06 343.88000000000005 158.06Q344.68 158.06 345.44000000000005 157.0Q346.20000000000005 155.94 347.08000000000004 152.98Q347.20000000000005 152.54 347.6 152.54Q347.92 152.54 347.98 152.77999999999997Q348.04 153.01999999999998 347.96000000000004 153.33999999999997Q347.20000000000005 156.06 346.32000000000005 157.6Q345.44000000000005 159.14 344.5400000000001 159.74Q343.64000000000004 160.34 342.72 160.34ZM353.48 160.34Q352.0 160.34 351.46000000000004 159.0Q350.92 157.66 351.52 155.45999999999998L354.68 143.85999999999999Q355.0 142.7 354.84000000000003 142.06Q354.68 141.42 354.12 141.42Q353.2 141.42 352.26 142.82Q351.32 144.22 350.64 146.7Q350.52 147.14 350.12 147.14Q349.56 147.14 349.76 146.33999999999997Q350.68 142.98 352.18 141.15999999999997Q353.68 139.33999999999997 355.48 139.33999999999997Q356.92 139.33999999999997 357.4 140.65999999999997Q357.88 141.98 357.24 144.26L354.04 155.85999999999999Q353.28 158.61999999999998 354.56 158.61999999999998Q355.36 158.61999999999998 356.4 157.53999999999996Q357.44 156.45999999999998 358.58 154.57999999999998Q359.71999999999997 152.7 360.84 150.29999999999998Q361.96 147.89999999999998 362.88 145.26Q363.8 142.62 364.4 140.01999999999998Q364.52 139.57999999999998 364.96 139.57999999999998H366.56Q367.12 139.57999999999998 367.0 140.1L363.24 156.17999999999998Q362.8 158.06 363.92 158.06Q365.6 158.06 367.44 152.98Q367.6 152.45999999999998 368.0 152.45999999999998Q368.24 152.45999999999998 368.34000000000003 152.65999999999997Q368.44 152.85999999999999 368.32 153.17999999999998Q367.24 156.57999999999998 365.76 158.45999999999998Q364.28 160.34 362.64 160.34Q359.76 160.34 360.71999999999997 156.14L361.76 151.7Q361.84 151.42 361.65999999999997 151.38Q361.48 151.33999999999997 361.36 151.57999999999998Q359.04 156.38 357.08000000000004 158.36Q355.12 160.34 353.48 160.34ZM392.84 160.34Q391.4 160.34 390.67999999999995 159.14Q389.96 157.94 390.59999999999997 155.42L393.68 143.82Q394.12 142.26 393.82 141.66Q393.52 141.06 392.96 141.06Q392.15999999999997 141.06 391.12 142.16Q390.08 143.26 388.94 145.14Q387.8 147.01999999999998 386.72 149.42Q385.64 151.82 384.72 154.42Q383.8 157.01999999999998 383.2 159.54Q383.08 159.98 382.64 159.98H381.08Q380.52 159.98 380.64 159.45999999999998L384.32 143.82Q384.68 142.26 384.41999999999996 141.66Q384.15999999999997 141.06 383.59999999999997 141.06Q382.84 141.06 381.79999999999995 142.16Q380.76 143.26 379.64 145.14Q378.52 147.01999999999998 377.44 149.42Q376.36 151.82 375.44 154.42Q374.52 157.01999999999998 373.96 159.54Q373.84 159.98 373.4 159.98H371.76Q371.2 159.98 371.32 159.45999999999998L375.12 143.5Q375.32 142.62 375.17999999999995 142.12Q375.03999999999996 141.62 374.44 141.62Q373.71999999999997 141.62 372.86 142.68Q372.0 143.73999999999998 370.92 146.7Q370.76 147.22 370.36 147.22Q369.76 147.22 370.03999999999996 146.5Q370.92 143.73999999999998 371.9 142.18Q372.88 140.62 373.88 139.98Q374.88 139.33999999999997 375.71999999999997 139.33999999999997Q377.03999999999996 139.33999999999997 377.59999999999997 140.32Q378.15999999999997 141.29999999999998 377.64 143.54L376.64 147.85999999999999Q376.59999999999997 148.14 376.76 148.18Q376.92 148.22 377.03999999999996 147.98Q379.36 143.17999999999998 381.24 141.26Q383.12 139.33999999999997 384.68 139.33999999999997Q386.15999999999997 139.33999999999997 386.78 140.53999999999996Q387.4 141.73999999999998 386.84 144.22L386.0 147.85999999999999Q385.96 148.14 386.12 148.18Q386.28 148.22 386.4 147.98Q387.91999999999996 144.73999999999998 389.26 142.83999999999997Q390.59999999999997 140.94 391.79999999999995 140.14Q393.0 139.33999999999997 394.03999999999996 139.33999999999997Q395.52 139.33999999999997 396.2 140.53999999999996Q396.88 141.73999999999998 396.2 144.22L393.15999999999997 155.82Q392.88 156.94 393.12 157.5Q393.36 158.06 394.0 158.06Q394.8 158.06 395.58000000000004 157.0Q396.36 155.94 397.2 152.98Q397.32 152.54 397.71999999999997 152.54Q398.03999999999996 152.54 398.09999999999997 152.77999999999997Q398.15999999999997 153.01999999999998 398.08 153.33999999999997Q397.32 156.06 396.44 157.6Q395.56 159.14 394.65999999999997 159.74Q393.76 160.34 392.84 160.34ZM404.44 160.34Q403.08 160.34 402.02 159.6Q400.96 158.85999999999999 400.53999999999996 157.35999999999999Q400.12 155.85999999999999 400.64 153.61999999999998L405.12 134.38Q405.32 133.66 405.14 133.38Q404.96 133.1 404.4 133.06L403.2 132.94Q402.6 132.89999999999998 402.68 132.42Q402.76 132.06 403.24 131.98Q404.68 131.73999999999998 405.8 131.39999999999998Q406.92 131.06 407.6 130.5Q407.92 130.26 408.2 130.26Q408.68 130.26 408.56 130.85999999999999L404.92 146.57999999999998Q404.88 146.85999999999999 405.03999999999996 146.89999999999998Q405.2 146.94 405.32 146.7Q407.52 142.5 409.26 140.92Q411.0 139.33999999999997 412.52 139.33999999999997Q414.0 139.33999999999997 414.86 140.57999999999998Q415.72 141.82 415.72 144.22Q415.72 146.5 415.06 148.8Q414.4 151.1 413.26 153.18Q412.12 155.26 410.65999999999997 156.85999999999999Q409.2 158.45999999999998 407.6 159.39999999999998Q406.0 160.34 404.44 160.34ZM404.56 159.34Q405.6 159.34 406.76 158.39999999999998Q407.92 157.45999999999998 409.02 155.88Q410.12 154.29999999999998 411.0 152.32Q411.88 150.33999999999997 412.4 148.23999999999998Q412.92 146.14 412.92 144.17999999999998Q412.92 142.66 412.6 142.04Q412.28 141.42 411.48 141.42Q410.6 141.42 409.48 142.5Q408.36 143.57999999999998 407.20000000000005 145.35999999999999Q406.04 147.14 405.04 149.21999999999997Q404.04 151.29999999999998 403.44 153.32Q402.84 155.34 402.84 156.89999999999998Q402.84 159.34 404.56 159.34ZM417.52000000000004 160.34Q416.68 160.34 416.16 159.8Q415.64000000000004 159.26 415.64000000000004 158.45999999999998Q415.64000000000004 157.42 416.36 156.77999999999997Q417.08000000000004 156.14 417.88 156.14Q418.68 156.14 419.22 156.68Q419.76000000000005 157.22 419.76000000000005 158.01999999999998Q419.76000000000005 159.06 419.04 159.7Q418.32 160.34 417.52000000000004 160.34Z"/></svg>
